<svg width="300" height="400" viewBox="0 0 300 400" fill="none" xmlns="http://www.w3.org/2000/svg">
  <rect width="300" height="400" fill="#f3f4f6"/>
  <rect width="300" height="400" fill="#e5e7eb" opacity="0.5"/>
  
  <!-- Ícone de livro -->
  <g transform="translate(100, 150)">
    <rect x="0" y="0" width="100" height="120" rx="8" fill="#6b7280" stroke="#374151" stroke-width="2"/>
    <rect x="8" y="8" width="84" height="104" rx="4" fill="#f9fafb"/>
    
    <!-- Linhas de texto simuladas -->
    <rect x="16" y="20" width="60" height="2" rx="1" fill="#d1d5db"/>
    <rect x="16" y="28" width="50" height="2" rx="1" fill="#d1d5db"/>
    <rect x="16" y="36" width="55" height="2" rx="1" fill="#d1d5db"/>
    <rect x="16" y="44" width="45" height="2" rx="1" fill="#d1d5db"/>
    <rect x="16" y="52" width="58" height="2" rx="1" fill="#d1d5db"/>
    <rect x="16" y="60" width="52" height="2" rx="1" fill="#d1d5db"/>
    <rect x="16" y="68" width="48" height="2" rx="1" fill="#d1d5db"/>
    <rect x="16" y="76" width="54" height="2" rx="1" fill="#d1d5db"/>
    <rect x="16" y="84" width="47" height="2" rx="1" fill="#d1d5db"/>
    <rect x="16" y="92" width="56" height="2" rx="1" fill="#d1d5db"/>
  </g>
  
  <!-- Texto "Sem imagem" -->
  <text x="150" y="320" text-anchor="middle" font-family="Arial, sans-serif" font-size="14" fill="#6b7280">
    Sem imagem disponível
  </text>
</svg> 